<svg width="24" height="24" viewBox="0 0 23.38 23.38" fill="none" xmlns="http://www.w3.org/2000/svg">
<path fill-rule="evenodd" clip-rule="evenodd" d="M0.70097 23.7735H0.62767C0.62767 23.7348 0.609311 23.6764 0.609311 23.6569C0.609311 23.6376 0.609311 23.5988 0.554236 23.5988H0.444086V23.7735H0.389011V23.3655H0.554236C0.62767 23.3655 0.682612 23.3851 0.682612 23.4626C0.682612 23.5209 0.664253 23.5405 0.646028 23.5597C0.664386 23.5792 0.682612 23.5987 0.682612 23.6376V23.7152C0.682612 23.7348 0.682612 23.7348 0.70097 23.7348V23.7735ZM0.62767 23.4822C0.62767 23.4238 0.590953 23.4238 0.572595 23.4238H0.444086V23.5405H0.554236C0.590953 23.5405 0.62767 23.5209 0.62767 23.4822V23.4822ZM0.939628 23.5598C0.939628 23.3268 0.756178 23.1322 0.51752 23.1322C0.297353 23.1322 0.11377 23.3268 0.11377 23.5598C0.11377 23.8124 0.297353 24.007 0.51752 24.007C0.756045 24.0068 0.939628 23.8124 0.939628 23.5598ZM0.884553 23.5598C0.884553 23.7737 0.719461 23.929 0.51752 23.929C0.315578 23.929 0.168845 23.7735 0.168845 23.5598C0.168845 23.3655 0.315711 23.1905 0.51752 23.1905C0.719328 23.1905 0.884553 23.3655 0.884553 23.5598ZM23.4938 15.7083C23.4938 16.2914 23.1451 16.5632 22.521 16.5632H21.3284V15.9801H22.521C22.6312 15.9801 22.723 15.9608 22.7598 15.922C22.7964 15.883 22.8331 15.8247 22.8331 15.7471C22.8331 15.6692 22.7966 15.5915 22.7598 15.5528C22.723 15.5138 22.6497 15.4945 22.5395 15.4945C21.9708 15.4749 21.255 15.5138 21.255 14.6588C21.255 14.2699 21.4935 13.8423 22.1358 13.8423H23.3653V14.4255H22.2274C22.1176 14.4255 22.044 14.4255 21.9889 14.4642C21.9338 14.5225 21.8973 14.5808 21.8973 14.6781C21.8973 14.7753 21.9523 14.8336 22.0256 14.8726C22.0992 14.8919 22.1726 14.9114 22.2644 14.9114H22.5946C22.9433 14.9114 23.1636 14.989 23.3105 15.1252C23.4203 15.2612 23.4938 15.4363 23.4938 15.7083V15.7083ZM20.9062 15.1252C20.7593 14.989 20.539 14.9114 20.1903 14.9114H19.8602C19.7685 14.9114 19.6949 14.8918 19.6216 14.8726C19.5481 14.8336 19.4933 14.7753 19.4933 14.6781C19.4933 14.5808 19.5115 14.5225 19.5849 14.4642C19.64 14.4255 19.7133 14.4255 19.8234 14.4255H20.9613V13.8423H19.7318C19.071 13.8423 18.8507 14.2699 18.8507 14.6588C18.8507 15.5136 19.5666 15.4749 20.1355 15.4945C20.2454 15.4945 20.319 15.5138 20.3556 15.5528C20.3921 15.5915 20.4291 15.6692 20.4291 15.7471C20.4291 15.8247 20.3923 15.883 20.3556 15.922C20.3005 15.9608 20.2272 15.9801 20.117 15.9801H18.9241V16.5632H20.117C20.7408 16.5632 21.0896 16.2913 21.0896 15.7083C21.0896 15.4363 21.0163 15.2612 20.9062 15.1252V15.1252ZM18.5571 15.9998H17.1076V15.4556H18.5205V14.9116H17.1076V14.4062H18.5571V13.8426H16.5019V16.5633H18.5571V15.9998ZM15.8411 13.9787C15.6392 13.8621 15.4007 13.8425 15.0887 13.8425H13.6758V16.5632H14.2996V15.5721H14.9603C15.1804 15.5721 15.309 15.5917 15.4008 15.6887C15.511 15.8247 15.511 16.058 15.511 16.233V16.5632H16.1164V16.0384C16.1164 15.7858 16.0982 15.6692 16.0247 15.5332C15.9696 15.4553 15.8598 15.3582 15.7129 15.2999C15.8779 15.2419 16.1534 15.0086 16.1534 14.5808C16.1532 14.2701 16.0431 14.0951 15.8411 13.9787V13.9787ZM12.3544 13.8425H10.3907L9.60157 14.7365L8.84914 13.8425H6.3717V16.5632H8.81256L9.6017 15.6692L10.3541 16.5632H11.547V15.65H12.3178C12.8499 15.65 13.3823 15.4945 13.3823 14.7365C13.3822 13.998 12.8316 13.8425 12.3544 13.8425ZM15.3456 14.9698C15.2539 15.0086 15.1621 15.0086 15.052 15.0086L14.2996 15.0281V14.406H15.052C15.1621 14.406 15.2723 14.406 15.3456 14.4643C15.4192 14.5034 15.474 14.581 15.474 14.6976C15.474 14.8143 15.4192 14.9115 15.3456 14.9698V14.9698ZM12.3544 15.1058H11.5469V14.406H12.3544C12.5747 14.406 12.7214 14.5034 12.7214 14.7365C12.7214 14.9698 12.5746 15.1058 12.3544 15.1058ZM9.98696 15.2028L10.9412 14.1341V16.3302L9.98696 15.2028ZM8.50047 15.9998H6.97726V15.4556H8.33524V14.9116H6.97726V14.4062H8.51883L9.19782 15.203L8.50047 15.9998V15.9998ZM21.787 11.8796H20.9062L19.75 9.83892V11.8796H18.5023L18.2635 11.277H16.979L16.7404 11.8796H16.0246C15.731 11.8796 15.3456 11.8018 15.1256 11.5685C14.9236 11.3354 14.8135 11.0244 14.8135 10.5385C14.8135 10.1304 14.8685 9.76115 15.1437 9.46967C15.3271 9.25581 15.6576 9.15874 16.0795 9.15874H16.6667V9.74185H16.0795C15.8595 9.74185 15.7309 9.78073 15.6025 9.89738C15.4923 10.014 15.4373 10.2277 15.4373 10.5192C15.4373 10.8107 15.4923 11.0246 15.6025 11.1607C15.6941 11.2577 15.8595 11.2966 16.0245 11.2966H16.2998L17.1806 9.15888H18.0983L19.126 11.7242V9.15874H20.0803L21.1631 11.0439V9.15874H21.7868V11.8796H21.787V11.8796ZM14.5015 9.15874H13.8777V11.8796H14.5015V9.15874V9.15874ZM13.1985 9.27539C12.9965 9.15874 12.7765 9.15874 12.4645 9.15874H11.0513V11.8796H11.6569V10.8883H12.3175C12.5378 10.8883 12.6847 10.9078 12.7764 11.005C12.8865 11.1411 12.868 11.3744 12.868 11.5298V11.8796H13.4918V11.3354C13.4918 11.1022 13.4736 10.9856 13.3819 10.8495C13.3268 10.7717 13.2167 10.6745 13.0883 10.6163C13.2533 10.5385 13.5288 10.3248 13.5288 9.89724C13.5289 9.58632 13.4003 9.41134 13.1985 9.27539ZM10.6109 11.3161H9.17946V10.7718H10.5925V10.2083H9.17946V9.72241H10.6109V9.15888H8.55554V11.8797H10.6109V11.3161ZM8.09672 9.15874H7.08741L6.33498 11.005L5.52748 9.15874H4.53653V11.7241L3.49051 9.15874H2.57299L1.47189 11.8796H2.13252L2.37105 11.277H3.6556L3.89412 11.8796H5.14209V9.74185L6.04125 11.8796H6.57338L7.47267 9.74185V11.8796H8.09659V9.15874H8.09672ZM18.0435 10.6941L17.6212 9.6252L17.1993 10.6941H18.0435ZM12.7214 10.2666C12.6298 10.325 12.538 10.325 12.4095 10.325H11.6569V9.72255H12.4093C12.5195 9.72255 12.6477 9.72255 12.7213 9.76143C12.7946 9.81976 12.8314 9.89752 12.8314 10.014C12.8314 10.1305 12.7947 10.2276 12.7214 10.2666V10.2666ZM2.59121 10.6941L3.01332 9.6252L3.43543 10.6941H2.59121V10.6941ZM23.347 0.626953H1.4534V10.422L2.20582 8.61466H3.80233L4.02263 9.06167V8.61466H5.89452L6.31662 9.58632L6.72037 8.61466H12.6847C12.9598 8.61466 13.1983 8.67298 13.3821 8.82837V8.61466H15.0153V8.82837C15.2904 8.67284 15.6391 8.61466 16.0429 8.61466H18.4102L18.6305 9.06167V8.61466H20.3739L20.6309 9.06167V8.61466H22.3375V12.4238H20.6126L20.2824 11.8408V12.4238H18.1351L17.8966 11.802H17.3642L17.1257 12.4238H16.0064C15.5659 12.4238 15.2354 12.3072 15.0154 12.1907V12.4238H12.3544V11.5492C12.3544 11.4326 12.336 11.4131 12.2626 11.4131H12.1709V12.4237H7.03233V11.9378L6.84888 12.4237H5.76614L5.58269 11.9572V12.4237H3.50886L3.2887 11.8018H2.75644L2.51791 12.4237H1.4534V23.9096H23.347V16.9324C23.1085 17.0491 22.7781 17.1074 22.4477 17.1074H20.8511V16.8741C20.6677 17.0298 20.3372 17.1074 20.0254 17.1074H14.9969V16.233C14.9969 16.1163 14.9787 16.1163 14.8868 16.1163H14.7951V17.1074H13.1434V16.0774C12.8683 16.2134 12.5562 16.2134 12.281 16.2134H12.0974V17.1074H10.0788L9.6017 16.5243L9.06958 17.1074H5.82108V13.2984H9.12439L9.60157 13.8812L10.1155 13.2984H12.336C12.5928 13.2984 13.015 13.3371 13.1985 13.5314V13.2984H15.1804C15.3823 13.2984 15.7678 13.3371 16.0246 13.5314V13.2984H19.0159V13.5316C19.1812 13.376 19.4932 13.2985 19.7684 13.2985H21.4383V13.5316C21.622 13.3956 21.8788 13.2985 22.2092 13.2985H23.347V0.626953V0.626953Z" fill="#9E9E9E"/>
</svg>
